<svg xmlns="http://www.w3.org/2000/svg" xmlns:xlink="http://www.w3.org/1999/xlink" width="210" zoomAndPan="magnify" viewBox="0 0 157.5 50.999998" height="68" preserveAspectRatio="xMidYMid meet" version="1.0"><defs><g/><clipPath id="64087200d0"><path d="M 50 4 L 74 4 L 74 28 L 50 28 Z M 50 4 " clip-rule="nonzero"/></clipPath><clipPath id="952d54c982"><path d="M 60.324219 1.996094 L 73.507812 7.292969 L 63.195312 32.960938 L 50.015625 27.664062 Z M 60.324219 1.996094 " clip-rule="nonzero"/></clipPath><clipPath id="f75d8b4231"><path d="M 60.324219 1.996094 L 73.507812 7.292969 L 63.195312 32.960938 L 50.015625 27.664062 Z M 60.324219 1.996094 " clip-rule="nonzero"/></clipPath><clipPath id="ee58de4d87"><path d="M 50 4 L 68 4 L 68 28 L 50 28 Z M 50 4 " clip-rule="nonzero"/></clipPath><clipPath id="4d0c3d9756"><path d="M 60.324219 1.996094 L 73.507812 7.292969 L 63.195312 32.960938 L 50.015625 27.664062 Z M 60.324219 1.996094 " clip-rule="nonzero"/></clipPath><clipPath id="4256765e4f"><path d="M 60.324219 1.996094 L 73.507812 7.292969 L 63.195312 32.960938 L 50.015625 27.664062 Z M 60.324219 1.996094 " clip-rule="nonzero"/></clipPath></defs><g fill="#000000" fill-opacity="1"><g transform="translate(-1.64656, 38.002766)"><g><path d="M 19.921875 -15.203125 C 21.546875 -13.421875 22.359375 -11.242188 22.359375 -8.671875 C 22.359375 -6.097656 21.546875 -3.921875 19.921875 -2.140625 C 18.296875 -0.367188 16.226562 0.515625 13.71875 0.515625 C 11.414062 0.515625 9.519531 -0.3125 8.03125 -1.96875 L 7.953125 -1.96875 L 7.953125 0 L 2.03125 0 L 2.03125 -29.125 L 8.03125 -29.125 L 8.03125 -15.71875 C 9.519531 -17.164062 11.414062 -17.890625 13.71875 -17.890625 C 16.226562 -17.890625 18.296875 -16.992188 19.921875 -15.203125 Z M 14.859375 -5.734375 C 15.609375 -6.492188 15.984375 -7.472656 15.984375 -8.671875 C 15.984375 -9.867188 15.59375 -10.847656 14.8125 -11.609375 C 14.039062 -12.378906 13.078125 -12.765625 11.921875 -12.765625 C 10.796875 -12.765625 9.84375 -12.378906 9.0625 -11.609375 C 8.28125 -10.847656 7.890625 -9.867188 7.890625 -8.671875 C 7.890625 -7.492188 8.265625 -6.519531 9.015625 -5.75 C 9.773438 -4.988281 10.742188 -4.609375 11.921875 -4.609375 C 13.140625 -4.609375 14.117188 -4.984375 14.859375 -5.734375 Z M 14.859375 -5.734375 "/></g></g></g><g fill="#000000" fill-opacity="1"><g transform="translate(18.30447, 38.002766)"><g><path d="M 3.21875 -2.140625 C 1.59375 -3.921875 0.78125 -6.097656 0.78125 -8.671875 C 0.78125 -11.242188 1.59375 -13.421875 3.21875 -15.203125 C 4.84375 -16.992188 6.910156 -17.890625 9.421875 -17.890625 C 11.722656 -17.890625 13.617188 -17.164062 15.109375 -15.71875 L 15.109375 -17.375 L 21.109375 -17.375 L 21.109375 0 L 15.171875 0 L 15.171875 -1.96875 L 15.109375 -1.96875 C 13.617188 -0.3125 11.722656 0.515625 9.421875 0.515625 C 6.910156 0.515625 4.84375 -0.367188 3.21875 -2.140625 Z M 8.3125 -11.609375 C 7.53125 -10.847656 7.140625 -9.867188 7.140625 -8.671875 C 7.140625 -7.472656 7.515625 -6.492188 8.265625 -5.734375 C 9.015625 -4.984375 10 -4.609375 11.21875 -4.609375 C 12.382812 -4.609375 13.347656 -4.988281 14.109375 -5.75 C 14.867188 -6.519531 15.25 -7.492188 15.25 -8.671875 C 15.25 -9.867188 14.859375 -10.847656 14.078125 -11.609375 C 13.296875 -12.378906 12.34375 -12.765625 11.21875 -12.765625 C 10.0625 -12.765625 9.09375 -12.378906 8.3125 -11.609375 Z M 8.3125 -11.609375 "/></g></g></g><g fill="#000000" fill-opacity="1"><g transform="translate(38.2555, 38.002766)"><g><path d="M 18.828125 -17.375 L 10.234375 -4.578125 L 18.15625 -4.578125 L 18.15625 0 L 0.171875 0 L 8.78125 -12.8125 L 1.59375 -12.8125 L 1.59375 -17.375 Z M 18.828125 -17.375 "/></g></g></g><g fill="#000000" fill-opacity="1"><g transform="translate(54.073865, 38.002766)"><g><path d="M 3.21875 -2.140625 C 1.59375 -3.921875 0.78125 -6.097656 0.78125 -8.671875 C 0.78125 -11.242188 1.59375 -13.421875 3.21875 -15.203125 C 4.84375 -16.992188 6.910156 -17.890625 9.421875 -17.890625 C 11.722656 -17.890625 13.617188 -17.164062 15.109375 -15.71875 L 15.109375 -17.375 L 21.109375 -17.375 L 21.109375 0 L 15.171875 0 L 15.171875 -1.96875 L 15.109375 -1.96875 C 13.617188 -0.3125 11.722656 0.515625 9.421875 0.515625 C 6.910156 0.515625 4.84375 -0.367188 3.21875 -2.140625 Z M 8.3125 -11.609375 C 7.53125 -10.847656 7.140625 -9.867188 7.140625 -8.671875 C 7.140625 -7.472656 7.515625 -6.492188 8.265625 -5.734375 C 9.015625 -4.984375 10 -4.609375 11.21875 -4.609375 C 12.382812 -4.609375 13.347656 -4.988281 14.109375 -5.75 C 14.867188 -6.519531 15.25 -7.492188 15.25 -8.671875 C 15.25 -9.867188 14.859375 -10.847656 14.078125 -11.609375 C 13.296875 -12.378906 12.34375 -12.765625 11.21875 -12.765625 C 10.0625 -12.765625 9.09375 -12.378906 8.3125 -11.609375 Z M 8.3125 -11.609375 "/></g></g></g><g fill="#000000" fill-opacity="1"><g transform="translate(74.024895, 38.002766)"><g><path d="M 1.25 4.265625 L 6.171875 1.859375 C 7.066406 3.347656 8.632812 4.09375 10.875 4.09375 C 11.914062 4.09375 12.878906 3.757812 13.765625 3.09375 C 14.660156 2.425781 15.109375 1.40625 15.109375 0.03125 L 15.109375 -1.25 C 14.046875 -0.0703125 12.148438 0.515625 9.421875 0.515625 C 6.910156 0.515625 4.84375 -0.367188 3.21875 -2.140625 C 1.59375 -3.921875 0.78125 -6.097656 0.78125 -8.671875 C 0.78125 -11.242188 1.59375 -13.421875 3.21875 -15.203125 C 4.84375 -16.992188 6.910156 -17.890625 9.421875 -17.890625 C 11.648438 -17.890625 13.507812 -17.195312 15 -15.8125 L 15.109375 -15.8125 L 15.109375 -17.375 L 21.109375 -17.375 L 21.109375 0.46875 C 21.109375 3.289062 20.171875 5.46875 18.296875 7 C 16.421875 8.539062 13.945312 9.3125 10.875 9.3125 C 5.90625 9.3125 2.695312 7.628906 1.25 4.265625 Z M 8.3125 -11.609375 C 7.53125 -10.847656 7.140625 -9.867188 7.140625 -8.671875 C 7.140625 -7.472656 7.515625 -6.492188 8.265625 -5.734375 C 9.015625 -4.984375 10 -4.609375 11.21875 -4.609375 C 12.382812 -4.609375 13.347656 -4.988281 14.109375 -5.75 C 14.867188 -6.519531 15.25 -7.492188 15.25 -8.671875 C 15.25 -9.867188 14.859375 -10.847656 14.078125 -11.609375 C 13.296875 -12.378906 12.34375 -12.765625 11.21875 -12.765625 C 10.0625 -12.765625 9.09375 -12.378906 8.3125 -11.609375 Z M 8.3125 -11.609375 "/></g></g></g><g fill="#000000" fill-opacity="1"><g transform="translate(93.975928, 38.002766)"><g><path d="M 3.671875 -2.0625 C 1.742188 -3.78125 0.78125 -5.984375 0.78125 -8.671875 C 0.78125 -11.359375 1.785156 -13.566406 3.796875 -15.296875 C 5.804688 -17.023438 8.289062 -17.890625 11.25 -17.890625 C 14.15625 -17.890625 16.609375 -17.019531 18.609375 -15.28125 C 20.609375 -13.539062 21.609375 -11.335938 21.609375 -8.671875 C 21.609375 -6.003906 20.628906 -3.804688 18.671875 -2.078125 C 16.722656 -0.347656 14.25 0.515625 11.25 0.515625 C 8.132812 0.515625 5.609375 -0.34375 3.671875 -2.0625 Z M 8.3125 -11.609375 C 7.53125 -10.847656 7.140625 -9.867188 7.140625 -8.671875 C 7.140625 -7.472656 7.515625 -6.492188 8.265625 -5.734375 C 9.015625 -4.984375 10 -4.609375 11.21875 -4.609375 C 12.382812 -4.609375 13.347656 -4.988281 14.109375 -5.75 C 14.867188 -6.519531 15.25 -7.492188 15.25 -8.671875 C 15.25 -9.867188 14.859375 -10.847656 14.078125 -11.609375 C 13.296875 -12.378906 12.34375 -12.765625 11.21875 -12.765625 C 10.0625 -12.765625 9.09375 -12.378906 8.3125 -11.609375 Z M 8.3125 -11.609375 "/></g></g></g><g fill="#000000" fill-opacity="1"><g transform="translate(113.181727, 38.002766)"><g><path d="M 2.03125 0 L 2.03125 -17.375 L 8.03125 -17.375 L 8.03125 -14.875 L 8.09375 -14.875 C 8.132812 -14.957031 8.207031 -15.066406 8.3125 -15.203125 C 8.414062 -15.335938 8.632812 -15.570312 8.96875 -15.90625 C 9.3125 -16.25 9.675781 -16.554688 10.0625 -16.828125 C 10.445312 -17.109375 10.941406 -17.351562 11.546875 -17.5625 C 12.160156 -17.78125 12.785156 -17.890625 13.421875 -17.890625 C 14.066406 -17.890625 14.707031 -17.796875 15.34375 -17.609375 C 15.976562 -17.429688 16.441406 -17.253906 16.734375 -17.078125 L 17.203125 -16.796875 L 14.703125 -11.71875 C 13.953125 -12.351562 12.910156 -12.671875 11.578125 -12.671875 C 10.859375 -12.671875 10.238281 -12.507812 9.71875 -12.1875 C 9.195312 -11.875 8.828125 -11.488281 8.609375 -11.03125 C 8.398438 -10.582031 8.25 -10.203125 8.15625 -9.890625 C 8.070312 -9.578125 8.03125 -9.328125 8.03125 -9.140625 L 8.03125 0 Z M 2.03125 0 "/></g></g></g><g fill="#000000" fill-opacity="1"><g transform="translate(126.866008, 38.002766)"><g><path d="M 3.21875 -2.140625 C 1.59375 -3.921875 0.78125 -6.097656 0.78125 -8.671875 C 0.78125 -11.242188 1.59375 -13.421875 3.21875 -15.203125 C 4.84375 -16.992188 6.910156 -17.890625 9.421875 -17.890625 C 11.722656 -17.890625 13.617188 -17.164062 15.109375 -15.71875 L 15.109375 -17.375 L 21.109375 -17.375 L 21.109375 0 L 15.171875 0 L 15.171875 -1.96875 L 15.109375 -1.96875 C 13.617188 -0.3125 11.722656 0.515625 9.421875 0.515625 C 6.910156 0.515625 4.84375 -0.367188 3.21875 -2.140625 Z M 8.3125 -11.609375 C 7.53125 -10.847656 7.140625 -9.867188 7.140625 -8.671875 C 7.140625 -7.472656 7.515625 -6.492188 8.265625 -5.734375 C 9.015625 -4.984375 10 -4.609375 11.21875 -4.609375 C 12.382812 -4.609375 13.347656 -4.988281 14.109375 -5.75 C 14.867188 -6.519531 15.25 -7.492188 15.25 -8.671875 C 15.25 -9.867188 14.859375 -10.847656 14.078125 -11.609375 C 13.296875 -12.378906 12.34375 -12.765625 11.21875 -12.765625 C 10.0625 -12.765625 9.09375 -12.378906 8.3125 -11.609375 Z M 8.3125 -11.609375 "/></g></g></g><g fill="#000000" fill-opacity="1"><g transform="translate(146.817034, 38.002766)"><g><path d="M 5.890625 -7.25 C 6.972656 -7.25 7.894531 -6.867188 8.65625 -6.109375 C 9.414062 -5.359375 9.796875 -4.441406 9.796875 -3.359375 C 9.796875 -2.296875 9.414062 -1.382812 8.65625 -0.625 C 7.894531 0.132812 6.972656 0.515625 5.890625 0.515625 C 4.828125 0.515625 3.914062 0.132812 3.15625 -0.625 C 2.40625 -1.382812 2.03125 -2.296875 2.03125 -3.359375 C 2.03125 -4.441406 2.40625 -5.359375 3.15625 -6.109375 C 3.914062 -6.867188 4.828125 -7.25 5.890625 -7.25 Z M 5.890625 -7.25 "/></g></g></g><g clip-path="url(#64087200d0)"><g clip-path="url(#952d54c982)"><g clip-path="url(#f75d8b4231)"><path fill="#000000" d="M 66.796875 4.59375 L 73.375 7.238281 L 64.605469 13.988281 L 68.460938 15.535156 L 50.027344 27.644531 L 60.480469 16.710938 L 56.199219 15.230469 Z M 66.796875 4.59375 " fill-opacity="1" fill-rule="nonzero"/></g></g></g><g clip-path="url(#ee58de4d87)"><g clip-path="url(#4d0c3d9756)"><g clip-path="url(#4256765e4f)"><path fill="#000000" d="M 66.796875 4.59375 L 67.929688 5.050781 L 56.199219 15.230469 Z M 50.027344 27.644531 L 61.273438 17.027344 L 60.480469 16.710938 Z M 50.027344 27.644531 " fill-opacity="1" fill-rule="nonzero"/></g></g></g></svg>